<svg xmlns:inkscape="http://www.inkscape.org/namespaces/inkscape" xmlns:sodipodi="http://sodipodi.sourceforge.net/DTD/sodipodi-0.dtd" xmlns="http://www.w3.org/2000/svg" xmlns:svg="http://www.w3.org/2000/svg" id="svg2" width="533.33331" height="124" viewBox="0 0 533.33331 124" sodipodi:docname="arfa-karim-technology-incubator-logo.ai"><defs id="defs6"><clipPath clipPathUnits="userSpaceOnUse" id="clipPath16"><path d="M 0,93 H 400 V 0 H 0 Z" id="path14"></path></clipPath></defs><g id="g8" inkscape:groupmode="layer" inkscape:label="arfa-karim-technology-incubator-logo" transform="matrix(1.3333333,0,0,-1.3333333,0,124)"><g id="g10"><g id="g12" clip-path="url(#clipPath16)"><g id="g18" transform="translate(139.105,56.8461)"><path d="M 0,0 -5.111,12.032 -10.222,0 Z m 12.031,-11.073 c 0,-1.757 -1.544,-3.248 -3.407,-3.248 -1.703,0 -2.928,0.905 -3.514,2.289 l -2.714,6.336 h -15.014 l -2.715,-6.336 c -0.585,-1.384 -1.757,-2.289 -3.46,-2.289 -1.917,0 -3.461,1.491 -3.461,3.248 0,0.745 0.213,1.437 0.479,2.023 l 13.203,29.866 c 0.746,1.81 1.864,2.662 3.461,2.662 1.597,0 2.715,-0.852 3.513,-2.662 L 11.605,-9.05 c 0.267,-0.586 0.426,-1.278 0.426,-2.023" style="fill:#36298f;fill-opacity:1;fill-rule:nonzero;stroke:none" id="path20"></path></g><g id="g22" transform="translate(174.773,67.5472)"><path d="m 0,0 c 0,-1.97 -1.491,-3.301 -4.472,-3.301 -4.206,0 -6.868,-3.247 -7.134,-5.43 v -12.831 c 0,-1.863 -1.597,-3.46 -3.46,-3.46 -1.917,0 -3.514,1.597 -3.514,3.46 v 21.136 c 0,1.916 1.597,3.513 3.514,3.513 1.863,0 3.46,-1.597 3.46,-3.513 v -2.662 c 0.213,1.917 3.514,6.282 8.305,6.282 C -1.118,3.194 0,1.704 0,0" style="fill:#36298f;fill-opacity:1;fill-rule:nonzero;stroke:none" id="path24"></path></g><g id="g26" transform="translate(198.8364,77.183)"><path d="m 0,0 c 0,-1.491 -1.118,-2.502 -2.609,-2.502 -0.479,0 -1.225,0.16 -2.236,0.479 -0.692,0.266 -1.118,0.426 -1.81,0.426 -2.982,0 -3.354,-2.449 -3.354,-3.514 v -1.597 h 4.365 c 1.704,0 2.822,-1.118 2.822,-2.768 0,-1.597 -1.118,-2.715 -2.822,-2.715 h -4.365 V -31.25 c 0,-1.917 -1.597,-3.461 -3.513,-3.461 -1.864,0 -3.461,1.544 -3.461,3.461 v 19.059 h -1.597 c -1.704,0 -2.822,1.118 -2.822,2.715 0,1.65 1.118,2.768 2.822,2.768 h 1.597 v 1.97 c 0,7.453 5.909,9.05 9.316,9.05 2.343,0 4.366,-0.585 5.804,-1.49 C -0.64,2.076 0,1.171 0,0" style="fill:#36298f;fill-opacity:1;fill-rule:nonzero;stroke:none" id="path28"></path></g><g id="g30" transform="translate(218.3218,56.6332)"><path d="m 0,0 c 0,6.016 -3.939,8.199 -6.921,8.199 -3.514,0 -7.187,-2.769 -7.187,-8.199 0,-5.483 3.673,-8.199 7.187,-8.199 C -3.939,-8.199 0,-6.016 0,0 m 6.761,10.541 v -21.242 c 0,-1.916 -1.703,-3.46 -3.567,-3.46 -1.917,0 -3.513,1.544 -3.513,3.46 v 1.012 c -0.426,-1.651 -3.248,-4.525 -7.88,-4.525 -5.856,0 -12.883,4.525 -12.883,14.214 0,9.477 7.08,14.161 12.883,14.161 3.78,0 6.814,-2.023 7.88,-4.525 v 0.905 c 0,1.863 1.596,3.46 3.513,3.46 1.864,0 3.567,-1.597 3.567,-3.46" style="fill:#36298f;fill-opacity:1;fill-rule:nonzero;stroke:none" id="path32"></path></g><g id="g34" transform="translate(276.8814,45.5599)"><path d="m 0,0 c 0,-1.704 -1.437,-3.141 -3.194,-3.141 -0.906,0 -1.757,0.426 -2.343,1.064 L -18.527,12.617 -24.17,6.761 V 0.479 c 0,-1.97 -1.65,-3.62 -3.621,-3.62 -1.97,0 -3.566,1.65 -3.566,3.567 V 31.25 c 0,1.97 1.596,3.621 3.566,3.621 1.971,0 3.621,-1.651 3.621,-3.621 V 16.344 l 16.93,17.302 c 0.585,0.639 1.543,1.225 2.554,1.225 1.757,0 3.249,-1.438 3.249,-3.195 0,-0.798 -0.374,-1.597 -0.747,-2.076 L -14.055,17.249 -0.799,2.129 C -0.319,1.597 0,0.798 0,0" style="fill:#36298f;fill-opacity:1;fill-rule:nonzero;stroke:none" id="path36"></path></g><g id="g38" transform="translate(299.5601,56.6332)"><path d="m 0,0 c 0,6.016 -3.939,8.199 -6.921,8.199 -3.514,0 -7.187,-2.769 -7.187,-8.199 0,-5.483 3.673,-8.199 7.187,-8.199 C -3.939,-8.199 0,-6.016 0,0 m 6.761,10.541 v -21.242 c 0,-1.916 -1.703,-3.46 -3.567,-3.46 -1.917,0 -3.513,1.544 -3.513,3.46 v 1.012 c -0.426,-1.651 -3.248,-4.525 -7.88,-4.525 -5.856,0 -12.883,4.525 -12.883,14.214 0,9.477 7.08,14.161 12.883,14.161 3.78,0 6.814,-2.023 7.88,-4.525 v 0.905 c 0,1.863 1.596,3.46 3.513,3.46 1.864,0 3.567,-1.597 3.567,-3.46" style="fill:#36298f;fill-opacity:1;fill-rule:nonzero;stroke:none" id="path40"></path></g><g id="g42" transform="translate(331.2886,67.5472)"><path d="m 0,0 c 0,-1.97 -1.491,-3.301 -4.472,-3.301 -4.206,0 -6.868,-3.247 -7.134,-5.43 v -12.831 c 0,-1.863 -1.597,-3.46 -3.46,-3.46 -1.917,0 -3.514,1.597 -3.514,3.46 v 21.136 c 0,1.916 1.597,3.513 3.514,3.513 1.863,0 3.46,-1.597 3.46,-3.513 v -2.662 c 0.213,1.917 3.514,6.282 8.305,6.282 C -1.118,3.194 0,1.704 0,0" style="fill:#36298f;fill-opacity:1;fill-rule:nonzero;stroke:none" id="path44"></path></g><g id="g46" transform="translate(343.479,67.121)"><path d="m 0,0 v -21.082 c 0,-1.97 -1.597,-3.567 -3.461,-3.567 -1.916,0 -3.514,1.597 -3.514,3.567 V 0 c 0,1.917 1.598,3.514 3.514,3.514 C -1.597,3.514 0,1.917 0,0 m -7.027,10.754 c 0,1.864 1.65,3.461 3.566,3.461 1.864,0 3.515,-1.597 3.515,-3.461 0,-1.863 -1.651,-3.46 -3.515,-3.46 -1.916,0 -3.566,1.597 -3.566,3.46" style="fill:#36298f;fill-opacity:1;fill-rule:nonzero;stroke:none" id="path48"></path></g><g id="g50" transform="translate(395.3326,58.0174)"><path d="m 0,0 v -12.032 c 0,-1.916 -1.598,-3.46 -3.514,-3.46 -1.863,0 -3.461,1.544 -3.461,3.46 V 0 c 0,4.792 -2.502,6.761 -5.642,6.761 -4.792,0 -6.443,-4.472 -6.602,-5.963 V 0.852 0 -12.032 c 0,-1.916 -1.597,-3.46 -3.513,-3.46 -1.864,0 -3.461,1.544 -3.461,3.46 V 0 c 0,4.792 -2.502,6.761 -5.644,6.761 -4.791,0 -6.388,-4.472 -6.601,-5.963 v -12.83 c 0,-1.916 -1.597,-3.46 -3.46,-3.46 -1.917,0 -3.514,1.544 -3.514,3.46 V 9.104 c 0,1.916 1.597,3.513 3.514,3.513 1.863,0 3.46,-1.597 3.46,-3.513 V 6.442 c 0.213,1.916 3.354,6.282 9.104,6.282 3.992,0 7.612,-1.917 9.21,-6.655 1.49,3.301 4.845,6.655 10.009,6.655 C -4.738,12.724 0,9.21 0,0" style="fill:#36298f;fill-opacity:1;fill-rule:nonzero;stroke:none" id="path52"></path></g><g id="g54" transform="translate(88.7946,23.6864)"><path d="m 0,0 v 51.682 c 0,3.98 -4.436,6.354 -7.747,4.146 l -18.195,-12.13 12.299,-8.199 -10e-4,-0.001 V 0.665 c 0,-5.307 -5.914,-8.472 -10.329,-5.528 L -49.08,11.874 -61.378,3.675 -30.989,-16.585 C -17.743,-25.415 0,-15.92 0,0" style="fill:#36298f;fill-opacity:1;fill-rule:nonzero;stroke:none" id="path56"></path></g><g id="g58" transform="translate(15.1178,35.5614)"><path d="m 0,0 v 34.833 c 0,5.307 5.914,8.472 10.33,5.529 l 25.106,-16.738 12.299,8.199 -30.39,20.26 C 4.099,60.914 -13.644,51.418 -13.644,35.498 v -51.682 c 0,-3.98 4.436,-6.353 7.747,-4.146 L 12.298,-8.2 -0.001,0 Z" style="fill:#ffbe12;fill-opacity:1;fill-rule:nonzero;stroke:none" id="path60"></path></g><g id="g62" transform="translate(39.7141,35.561)"><path d="m 0,0 35.436,23.624 v 0 h 10e-4 L 23.138,31.823 10.84,23.624 v 0 L -24.596,0 v 0 h -0.001 L -12.298,-8.199 0.001,0 Z" style="fill:#f7104a;fill-opacity:1;fill-rule:nonzero;stroke:none" id="path64"></path></g><g id="g66" transform="translate(131.2974,27.2738)"><path d="m 0,0 c 0,-0.887 -0.726,-1.586 -1.586,-1.586 h -3.818 v -13.9 c 0,-1.049 -0.833,-1.909 -1.801,-1.909 -0.995,0 -1.829,0.86 -1.829,1.909 v 13.9 h -3.79 c -0.861,0 -1.614,0.699 -1.614,1.586 0,0.914 0.753,1.613 1.614,1.613 H -1.586 C -0.726,1.613 0,0.914 0,0" style="fill:#36298f;fill-opacity:1;fill-rule:nonzero;stroke:none" id="path68"></path></g><g id="g70" transform="translate(133.8779,18.2132)"><path d="M 0,0 H 6.721 C 6.453,2.07 4.947,2.931 3.415,2.931 1.882,2.931 0.242,2.07 0,0 m 10.19,-0.591 c 0,-1.399 -0.78,-1.883 -2.205,-1.883 L 0,-2.42 c 0.323,-1.962 1.882,-3.011 3.844,-3.011 0.969,0 1.426,0.215 2.233,0.565 0.483,0.215 0.86,0.43 1.317,0.43 0.752,0 1.209,-0.538 1.209,-1.21 0,-0.43 -0.187,-0.914 -0.859,-1.479 -0.995,-0.699 -2.34,-1.156 -4.034,-1.156 -3.576,0 -7.367,2.205 -7.367,7.098 0,4.839 4.007,7.179 7.072,7.179 3.065,0 6.775,-2.42 6.775,-6.587" style="fill:#36298f;fill-opacity:1;fill-rule:nonzero;stroke:none" id="path72"></path></g><g id="g74" transform="translate(158.3169,13.0511)"><path d="m 0,0 c 0,-0.86 -0.646,-1.291 -0.995,-1.613 -1.129,-0.995 -2.446,-1.506 -4.194,-1.506 -3.253,0 -7.179,2.339 -7.179,7.125 0,4.812 3.926,7.152 7.179,7.152 1.748,0 3.065,-0.484 4.194,-1.479 C -0.646,9.33 0,8.899 0,8.039 0,7.206 -0.699,6.695 -1.426,6.695 c -0.644,0 -1.155,0.376 -1.371,0.564 -0.618,0.592 -1.532,0.834 -2.258,0.834 -2.124,0 -3.818,-1.479 -3.818,-4.087 0,-2.581 1.694,-4.06 3.818,-4.06 0.726,0 1.64,0.242 2.258,0.834 0.216,0.188 0.727,0.564 1.371,0.564 C -0.699,1.344 0,0.833 0,0" style="fill:#36298f;fill-opacity:1;fill-rule:nonzero;stroke:none" id="path76"></path></g><g id="g78" transform="translate(174.2319,17.7562)"><path d="m 0,0 v -6.076 c 0,-0.968 -0.807,-1.748 -1.774,-1.748 -0.941,0 -1.747,0.78 -1.747,1.748 V 0 c 0,2.419 -1.264,3.415 -2.851,3.415 -2.419,0 -3.226,-2.259 -3.334,-3.012 v -6.479 c 0,-0.968 -0.806,-1.748 -1.747,-1.748 -0.968,0 -1.775,0.78 -1.775,1.748 V 9.76 c 0,0.941 0.807,1.747 1.775,1.747 0.941,0 1.747,-0.806 1.747,-1.747 V 3.253 c 0.108,0.968 1.694,3.173 4.598,3.173 C -2.393,6.426 0,4.651 0,0" style="fill:#36298f;fill-opacity:1;fill-rule:nonzero;stroke:none" id="path80"></path></g><g id="g82" transform="translate(190.6861,17.7562)"><path d="m 0,0 v -6.076 c 0,-0.968 -0.807,-1.748 -1.774,-1.748 -0.941,0 -1.747,0.78 -1.747,1.748 V 0 c 0,2.419 -1.264,3.415 -2.851,3.415 -2.419,0 -3.226,-2.259 -3.334,-3.012 v -6.479 c 0,-0.968 -0.806,-1.748 -1.747,-1.748 -0.968,0 -1.775,0.78 -1.775,1.748 V 4.598 c 0,0.967 0.807,1.774 1.775,1.774 0.941,0 1.747,-0.807 1.747,-1.774 V 3.253 c 0.108,0.968 1.694,3.173 4.598,3.173 C -2.393,6.426 0,4.651 0,0" style="fill:#36298f;fill-opacity:1;fill-rule:nonzero;stroke:none" id="path84"></path></g><g id="g86" transform="translate(196.8687,17.0301)"><path d="m 0,0 c 0,-2.581 1.774,-4.086 3.684,-4.086 1.881,0 3.683,1.505 3.683,4.086 0,2.608 -1.802,4.114 -3.683,4.114 C 1.774,4.114 0,2.608 0,0 m 10.862,0 c 0,-4.812 -4.113,-7.151 -7.178,-7.151 -3.092,0 -7.179,2.339 -7.179,7.151 0,4.786 4.087,7.179 7.179,7.179 3.065,0 7.178,-2.393 7.178,-7.179" style="fill:#36298f;fill-opacity:1;fill-rule:nonzero;stroke:none" id="path88"></path></g><g id="g90" transform="translate(212.1929,9.9325)"><path d="m 0,0 c -0.968,0 -1.774,0.779 -1.774,1.748 v 15.835 c 0,0.941 0.806,1.748 1.774,1.748 0.941,0 1.747,-0.807 1.747,-1.748 V 1.748 C 1.747,0.779 0.941,0 0,0" style="fill:#36298f;fill-opacity:1;fill-rule:nonzero;stroke:none" id="path92"></path></g><g id="g94" transform="translate(220.1236,17.0301)"><path d="m 0,0 c 0,-2.581 1.774,-4.086 3.684,-4.086 1.881,0 3.683,1.505 3.683,4.086 0,2.608 -1.802,4.114 -3.683,4.114 C 1.774,4.114 0,2.608 0,0 m 10.862,0 c 0,-4.812 -4.113,-7.151 -7.178,-7.151 -3.092,0 -7.179,2.339 -7.179,7.151 0,4.786 4.087,7.179 7.179,7.179 3.065,0 7.178,-2.393 7.178,-7.179" style="fill:#36298f;fill-opacity:1;fill-rule:nonzero;stroke:none" id="path96"></path></g><g id="g98" transform="translate(243.5152,17.057)"><path d="m 0,0 c 0,3.038 -1.99,4.141 -3.495,4.141 -1.776,0 -3.63,-1.398 -3.63,-4.141 0,-2.769 1.854,-4.14 3.63,-4.14 C -1.99,-4.14 0,-3.038 0,0 m 3.414,-5.404 c 0,-0.135 -0.026,-0.269 -0.054,-0.403 v -0.914 c 0,-4.383 -4.087,-5.781 -6.936,-5.781 -1.667,0 -3.012,0.457 -3.603,0.726 -0.753,0.323 -1.156,0.86 -1.156,1.505 0,0.807 0.646,1.399 1.398,1.399 0.162,0 0.376,-0.027 0.726,-0.135 0.538,-0.134 1.452,-0.457 2.661,-0.457 2.179,0 3.388,1.156 3.388,2.743 v 1.828 c -0.215,-0.834 -1.64,-2.285 -3.979,-2.285 -2.958,0 -6.506,2.285 -6.506,7.178 0,4.786 3.576,7.152 6.506,7.152 1.91,0 3.442,-1.022 3.979,-2.285 v 0.457 c 0,0.941 0.807,1.747 1.774,1.747 0.942,0 1.802,-0.806 1.802,-1.747 z" style="fill:#36298f;fill-opacity:1;fill-rule:nonzero;stroke:none" id="path100"></path></g><g id="g102" transform="translate(262.4146,22.5419)"><path d="m 0,0 c 0,-0.323 -0.108,-0.591 -0.216,-0.807 l -6.963,-15.674 c -0.377,-0.86 -1.021,-1.237 -1.694,-1.237 -0.914,0 -1.56,0.726 -1.56,1.586 0,0.323 0.109,0.592 0.189,0.807 l 1.532,3.495 -5,11.023 C -13.793,-0.591 -13.9,-0.323 -13.9,0 c 0,0.86 0.699,1.586 1.613,1.586 0.672,0 1.317,-0.376 1.693,-1.236 l 3.603,-8.335 3.683,8.335 c 0.377,0.86 0.995,1.236 1.667,1.236 C -0.699,1.586 0,0.86 0,0" style="fill:#36298f;fill-opacity:1;fill-rule:nonzero;stroke:none" id="path104"></path></g><g id="g106" transform="translate(275.6148,27.1664)"><path d="m 0,0 v -15.379 c 0,-0.995 -0.834,-1.855 -1.828,-1.855 -1.023,0 -1.856,0.86 -1.856,1.855 V 0 c 0,0.995 0.833,1.855 1.856,1.855 C -0.834,1.855 0,0.995 0,0" style="fill:#36298f;fill-opacity:1;fill-rule:nonzero;stroke:none" id="path108"></path></g><g id="g110" transform="translate(292.0679,17.7562)"><path d="m 0,0 v -6.076 c 0,-0.968 -0.807,-1.748 -1.774,-1.748 -0.941,0 -1.747,0.78 -1.747,1.748 V 0 c 0,2.419 -1.264,3.415 -2.851,3.415 -2.419,0 -3.226,-2.259 -3.334,-3.012 v -6.479 c 0,-0.968 -0.806,-1.748 -1.747,-1.748 -0.968,0 -1.775,0.78 -1.775,1.748 V 4.598 c 0,0.967 0.807,1.774 1.775,1.774 0.941,0 1.747,-0.807 1.747,-1.774 V 3.253 c 0.108,0.968 1.694,3.173 4.598,3.173 C -2.393,6.426 0,4.651 0,0" style="fill:#36298f;fill-opacity:1;fill-rule:nonzero;stroke:none" id="path112"></path></g><g id="g114" transform="translate(307.1236,13.0511)"><path d="m 0,0 c 0,-0.86 -0.646,-1.291 -0.995,-1.613 -1.129,-0.995 -2.446,-1.506 -4.194,-1.506 -3.253,0 -7.179,2.339 -7.179,7.125 0,4.812 3.926,7.152 7.179,7.152 1.748,0 3.065,-0.484 4.194,-1.479 C -0.646,9.33 0,8.899 0,8.039 0,7.206 -0.699,6.695 -1.426,6.695 c -0.644,0 -1.155,0.376 -1.371,0.564 -0.618,0.592 -1.532,0.834 -2.258,0.834 -2.124,0 -3.818,-1.479 -3.818,-4.087 0,-2.581 1.694,-4.06 3.818,-4.06 0.726,0 1.64,0.242 2.258,0.834 0.216,0.188 0.727,0.564 1.371,0.564 C -0.699,1.344 0,0.833 0,0" style="fill:#36298f;fill-opacity:1;fill-rule:nonzero;stroke:none" id="path116"></path></g><g id="g118" transform="translate(309.8111,16.3046)"><path d="m 0,0 v 6.076 c 0,0.968 0.807,1.748 1.774,1.748 0.942,0 1.747,-0.78 1.747,-1.748 V 0 c 0,-2.42 1.264,-3.415 2.851,-3.415 2.42,0 3.227,2.259 3.334,3.012 v 6.479 c 0,0.968 0.807,1.748 1.747,1.748 0.968,0 1.775,-0.78 1.775,-1.748 V -4.598 c 0,-0.967 -0.807,-1.774 -1.775,-1.774 -0.94,0 -1.747,0.807 -1.747,1.774 v 1.345 C 9.599,-4.221 8.012,-6.426 5.108,-6.426 2.393,-6.426 0,-4.651 0,0" style="fill:#36298f;fill-opacity:1;fill-rule:nonzero;stroke:none" id="path120"></path></g><g id="g122" transform="translate(336.8042,17.057)"><path d="m 0,0 c 0,2.743 -1.855,4.141 -3.63,4.141 -1.505,0 -3.495,-1.103 -3.495,-4.141 0,-3.038 1.99,-4.14 3.495,-4.14 C -1.855,-4.14 0,-2.769 0,0 m 3.522,0 c 0,-4.893 -3.548,-7.178 -6.506,-7.178 -2.339,0 -3.764,1.451 -3.979,2.285 v -0.511 c 0,-0.968 -0.807,-1.747 -1.775,-1.747 -0.941,0 -1.801,0.779 -1.801,1.747 v 15.863 c 0,0.941 0.833,1.748 1.801,1.748 0.941,0 1.748,-0.807 1.748,-1.748 V 5.619 C -6.963,5.512 -6.963,5.431 -6.963,5.324 V 4.867 c 0.537,1.263 2.069,2.285 3.979,2.285 2.93,0 6.506,-2.366 6.506,-7.152" style="fill:#36298f;fill-opacity:1;fill-rule:nonzero;stroke:none" id="path124"></path></g><g id="g126" transform="translate(352.854,17.057)"><path d="m 0,0 c 0,3.038 -1.99,4.141 -3.495,4.141 -1.775,0 -3.63,-1.398 -3.63,-4.141 0,-2.769 1.855,-4.14 3.63,-4.14 C -1.99,-4.14 0,-3.038 0,0 M 3.414,5.324 V -5.404 c 0,-0.968 -0.86,-1.747 -1.801,-1.747 -0.968,0 -1.775,0.779 -1.775,1.747 v 0.511 c -0.215,-0.834 -1.64,-2.285 -3.979,-2.285 -2.958,0 -6.506,2.285 -6.506,7.178 0,4.786 3.576,7.152 6.506,7.152 1.91,0 3.442,-1.022 3.979,-2.285 v 0.457 c 0,0.941 0.807,1.747 1.775,1.747 0.941,0 1.801,-0.806 1.801,-1.747" style="fill:#36298f;fill-opacity:1;fill-rule:nonzero;stroke:none" id="path128"></path></g><g id="g130" transform="translate(367.3443,11.8143)"><path d="m 0,0 c 0,-1.237 -1.21,-1.882 -3.038,-1.882 -1.828,0 -3.684,0.591 -3.684,4.329 v 7.017 h -0.779 c -0.86,0 -1.425,0.564 -1.425,1.371 0,0.833 0.565,1.398 1.425,1.398 h 0.779 v 1.829 c 0,0.967 0.807,1.774 1.775,1.774 0.968,0 1.748,-0.807 1.748,-1.774 v -1.829 h 1.774 C -0.538,12.233 0,11.668 0,10.835 0,10.028 -0.538,9.464 -1.425,9.464 H -3.199 V 2.339 c 0,-0.779 0.268,-1.183 0.86,-1.183 0.296,0 0.726,0.108 1.022,0.108 C -0.511,1.317 0,0.833 0,0" style="fill:#36298f;fill-opacity:1;fill-rule:nonzero;stroke:none" id="path132"></path></g><g id="g134" transform="translate(372.4517,17.0301)"><path d="m 0,0 c 0,-2.581 1.774,-4.086 3.684,-4.086 1.881,0 3.683,1.505 3.683,4.086 0,2.608 -1.802,4.114 -3.683,4.114 C 1.774,4.114 0,2.608 0,0 m 10.862,0 c 0,-4.812 -4.113,-7.151 -7.178,-7.151 -3.092,0 -7.179,2.339 -7.179,7.151 0,4.786 4.087,7.179 7.179,7.179 3.065,0 7.178,-2.393 7.178,-7.179" style="fill:#36298f;fill-opacity:1;fill-rule:nonzero;stroke:none" id="path136"></path></g><g id="g138" transform="translate(395.1167,22.5687)"><path d="m 0,0 c 0,-0.995 -0.753,-1.667 -2.258,-1.667 -2.124,0 -3.469,-1.64 -3.603,-2.742 v -6.48 c 0,-0.941 -0.806,-1.747 -1.747,-1.747 -0.968,0 -1.775,0.806 -1.775,1.747 v 10.674 c 0,0.968 0.807,1.775 1.775,1.775 0.941,0 1.747,-0.807 1.747,-1.775 V -1.56 c 0.108,0.969 1.775,3.173 4.194,3.173 C -0.564,1.613 0,0.86 0,0" style="fill:#36298f;fill-opacity:1;fill-rule:nonzero;stroke:none" id="path140"></path></g></g></g></g></svg>